<?xml version="1.0" encoding="utf-8"?>
<!-- Generator: Adobe Illustrator 27.3.1, SVG Export Plug-In . SVG Version: 6.00 Build 0)  -->
<svg version="1.1" id="Capa_1" xmlns="http://www.w3.org/2000/svg" xmlns:xlink="http://www.w3.org/1999/xlink" x="0px" y="0px"
	 viewBox="0 0 32.1 32.1" style="enable-background:new 0 0 32.1 32.1;" xml:space="preserve">
<style type="text/css">
	.st0{fill:#95CC29;}
	.st1{fill:#1D1D1B;}
	.st2{fill:none;}
</style>
<g id="Layer_21">
	<path class="st0" d="M18,2c3.3,0,6.3,1.3,8.5,3.5C28.7,7.7,30,10.7,30,14c0,0.6,0.4,1,1,1s1-0.4,1-1c0-7.7-6.3-14-14-14
		c-0.6,0-1,0.4-1,1S17.4,2,18,2L18,2z"/>
	<path class="st0" d="M18,6c2.2,0,4.2,0.9,5.7,2.3C25.1,9.8,26,11.8,26,14c0,0.6,0.4,1,1,1s1-0.4,1-1c0-5.5-4.5-10-10-10
		c-0.6,0-1,0.4-1,1S17.4,6,18,6L18,6z"/>
	<path class="st0" d="M18,10c2.2,0,4,1.8,4,4c0,0.6,0.4,1,1,1s1-0.4,1-1c0-3.3-2.7-6-6-6c-0.6,0-1,0.4-1,1S17.4,10,18,10L18,10z"/>
	<path class="st1" d="M25.6,17.8C25,17.3,24.2,17,23.5,17c-0.8,0-1.5,0.3-2.1,0.9l-1.4,1.4c-0.2,0.2-0.4,0.3-0.7,0.3
		c-0.3,0-0.5-0.1-0.7-0.3l-5.7-5.7c-0.2-0.2-0.3-0.4-0.3-0.7c0-0.3,0.1-0.5,0.3-0.7l1.4-1.4c0.6-0.6,0.9-1.4,0.9-2.1
		c0-0.8-0.3-1.5-0.9-2.1L8.6,0.9C8,0.3,7.3,0,6.5,0C5.7,0,5,0.3,4.4,0.9L1.6,3.7C0.5,4.8,0,6.1,0,7.4c0,2.7,1.7,5.4,3.8,7.9
		c2,2.5,4.5,4.9,6.3,6.7c1.8,1.8,4.2,4.2,6.7,6.3c2.6,2,5.2,3.7,7.9,3.8c1.3,0,2.7-0.5,3.7-1.6l2.8-2.8c0.6-0.6,0.9-1.4,0.9-2.1
		c0-0.8-0.3-1.5-0.9-2.1L25.6,17.8z M5.8,2.3C6,2.1,6.2,2,6.5,2C6.8,2,7,2.1,7.2,2.3l5.7,5.7c0.2,0.2,0.3,0.4,0.3,0.7
		c0,0.3-0.1,0.5-0.3,0.7l-0.7,0.7L5.1,3L5.8,2.3z M27,29.2c-0.7,0.7-1.4,1-2.3,1c-1.8,0-4.3-1.4-6.7-3.3c-2.4-1.9-4.8-4.3-6.6-6.1
		c-1.8-1.8-4.2-4.1-6.1-6.6C3.4,11.7,2,9.2,2,7.4c0-0.9,0.3-1.6,1-2.3l0.7-0.7l7.2,7.2c-0.2,0.4-0.3,0.8-0.3,1.3
		c0,0.8,0.3,1.5,0.9,2.1l5.7,5.7c0.6,0.6,1.4,0.9,2.1,0.9c0.4,0,0.9-0.1,1.3-0.3l7.2,7.2L27,29.2z M29.8,26.3L29.1,27L22.1,20
		l0.7-0.7c0.2-0.2,0.4-0.3,0.7-0.3c0.3,0,0.5,0.1,0.7,0.3l5.7,5.7c0.2,0.2,0.3,0.4,0.3,0.7C30.1,25.9,30,26.1,29.8,26.3z"/>
	<rect x="0" class="st2" width="32" height="32"/>
</g>
<g id="Layer_1">
</g>
</svg>
